<svg width="80" height="80" viewBox="0 0 80 80" fill="none" xmlns="http://www.w3.org/2000/svg">
<path d="M50 13.3334C46.4638 13.3334 43.0724 14.7381 40.5719 17.2386C38.0715 19.7391 36.6667 23.1305 36.6667 26.6667C36.6667 30.2029 38.0715 33.5943 40.5719 36.0948C43.0724 38.5953 46.4638 40 50 40C53.5363 40 56.9276 38.5953 59.4281 36.0948C61.9286 33.5943 63.3334 30.2029 63.3334 26.6667C63.3334 23.1305 61.9286 19.7391 59.4281 17.2386C56.9276 14.7381 53.5363 13.3334 50 13.3334ZM50 19.6667C50.9193 19.6667 51.8295 19.8478 52.6788 20.1996C53.5281 20.5513 54.2998 21.0669 54.9498 21.717C55.5998 22.367 56.1154 23.1386 56.4672 23.9879C56.819 24.8372 57 25.7475 57 26.6667C57 27.586 56.819 28.4962 56.4672 29.3455C56.1154 30.1948 55.5998 30.9664 54.9498 31.6165C54.2998 32.2665 53.5281 32.7821 52.6788 33.1339C51.8295 33.4856 50.9193 33.6667 50 33.6667C49.0808 33.6667 48.1705 33.4856 47.3213 33.1339C46.472 32.7821 45.7003 32.2665 45.0503 31.6165C44.4003 30.9664 43.8847 30.1948 43.5329 29.3455C43.1811 28.4962 43 27.586 43 26.6667C43 24.8102 43.7375 23.0297 45.0503 21.717C46.363 20.4042 48.1435 19.6667 50 19.6667ZM13.3334 23.3334V33.3334H3.33337V40H13.3334V50H20V40H30V33.3334H20V23.3334H13.3334ZM50 43.3334C41.1 43.3334 23.3334 47.7667 23.3334 56.6667V66.6667H76.6667V56.6667C76.6667 47.7667 58.9 43.3334 50 43.3334ZM50 49.6667C59.9 49.6667 70.3334 54.5334 70.3334 56.6667V60.3334H29.6667V56.6667C29.6667 54.5334 40 49.6667 50 49.6667Z" fill="black"/>
</svg>
