<svg width="68" height="72" viewBox="0 0 68 72" fill="none" xmlns="http://www.w3.org/2000/svg">
<path d="M34 46C39.5228 46 44 41.5228 44 36C44 30.4772 39.5228 26 34 26C28.4772 26 24 30.4772 24 36C24 41.5228 28.4772 46 34 46Z" stroke="white" stroke-width="5"/>
<path d="M6.20337 31.4666C7.78004 32.4533 8.79337 34.14 8.79337 36C8.79337 37.86 7.78004 39.5466 6.20337 40.5333C5.13337 41.21 4.44004 41.7466 3.95004 42.3866C3.41701 43.0814 3.02608 43.8744 2.79959 44.7203C2.5731 45.5662 2.51549 46.4485 2.63004 47.3166C2.80337 48.63 3.58004 49.9766 5.13004 52.6666C6.6867 55.3566 7.46337 56.7 8.51337 57.51C9.20816 58.043 10.0012 58.4339 10.8471 58.6604C11.693 58.8869 12.5752 58.9445 13.4434 58.83C14.2434 58.7233 15.0534 58.3966 16.1734 57.8033C16.9749 57.3646 17.8748 57.137 18.7885 57.1416C19.7022 57.1463 20.5997 57.3831 21.3967 57.83C23.0067 58.7633 23.9634 60.48 24.03 62.34C24.0767 63.6066 24.1967 64.4733 24.5067 65.2166C24.8417 66.026 25.333 66.7615 25.9524 67.3809C26.5719 68.0003 27.3073 68.4916 28.1167 68.8266C29.34 69.3333 30.8934 69.3333 34 69.3333C37.1067 69.3333 38.66 69.3333 39.8834 68.8266C40.6928 68.4916 41.4282 68.0003 42.0476 67.3809C42.667 66.7615 43.1583 66.026 43.4934 65.2166C43.8 64.4733 43.9234 63.6066 43.97 62.34C44.0367 60.48 44.9934 58.76 46.6034 57.83C47.4004 57.3831 48.2979 57.1463 49.2116 57.1416C50.1253 57.137 51.0252 57.3646 51.8267 57.8033C52.9467 58.3966 53.76 58.7233 54.56 58.83C56.3123 59.0604 58.0844 58.5856 59.4867 57.51C60.5367 56.7033 61.3134 55.3566 62.8667 52.6666C63.56 51.4666 64.0967 50.5366 64.4967 49.7566M61.7967 40.5366C61.0163 40.0623 60.3692 39.3974 59.9162 38.6045C59.4631 37.8115 59.219 36.9165 59.2067 36.0033C59.2067 34.14 60.22 32.4533 61.7967 31.4633C62.8667 30.79 63.5567 30.2533 64.05 29.6133C64.5831 28.9185 64.974 28.1255 65.2005 27.2796C65.427 26.4337 65.4846 25.5515 65.37 24.6833C65.1967 23.37 64.42 22.0233 62.87 19.3333C61.3134 16.6433 60.5367 15.3 59.4867 14.49C58.7919 13.9569 57.9989 13.566 57.153 13.3395C56.3071 13.113 55.4249 13.0554 54.5567 13.17C53.7567 13.2766 52.9467 13.6033 51.8234 14.1966C51.0222 14.6347 50.123 14.862 49.2099 14.8574C48.2969 14.8527 47.4 14.6162 46.6034 14.17C45.8182 13.703 45.1646 13.0441 44.704 12.2552C44.2434 11.4663 43.9908 10.5733 43.97 9.65996C43.9234 8.39329 43.8034 7.52663 43.4934 6.78329C43.1583 5.97389 42.667 5.23846 42.0476 4.61904C41.4282 3.99961 40.6928 3.50834 39.8834 3.17329C38.66 2.66663 37.1067 2.66663 34 2.66663C30.8934 2.66663 29.34 2.66663 28.1167 3.17329C27.3073 3.50834 26.5719 3.99961 25.9524 4.61904C25.333 5.23846 24.8417 5.97389 24.5067 6.78329C24.2 7.52663 24.0767 8.39329 24.03 9.65996C24.0093 10.5733 23.7567 11.4663 23.2961 12.2552C22.8354 13.0441 22.1819 13.703 21.3967 14.17C20.5997 14.6168 19.7022 14.8536 18.7885 14.8583C17.8748 14.863 16.9749 14.6353 16.1734 14.1966C15.0534 13.6033 14.24 13.2766 13.44 13.17C11.6878 12.9395 9.9157 13.4143 8.51337 14.49C7.4667 15.3 6.6867 16.6433 5.13337 19.3333C4.44004 20.5333 3.90337 21.4633 3.50337 22.2433" stroke="white" stroke-width="5" stroke-linecap="round"/>
</svg>
